<?xml version="1.0" encoding="utf-8" ?>
<svg baseProfile="full" height="200mm" version="1.1" viewBox="0,0,200,200" width="200mm" xmlns="http://www.w3.org/2000/svg" xmlns:ev="http://www.w3.org/2001/xml-events" xmlns:xlink="http://www.w3.org/1999/xlink"><defs /><rect fill="#1a1a1a" height="200" width="200" x="0" y="0" /><text alignment-baseline="middle" fill="#e1ed5e" style="dominant-baseline: central; font-size:9.0px; font-family:Arial;" text-anchor="middle" x="100.0" y="100.0">2023</text><line stroke="#e1ed5e" stroke-width="0.3" x1="100.0" x2="100.0" y1="15.0" y2="10.0" /><path d="M 100.0 14.0 a86.0,86.0 0 0,1 42.46469731375804,11.215312516191453" fill="none" id="id1" stroke="none" /><text fill="#e1ed5e" style="font-size:6.75px; font-family:Arial;" text-anchor="middle"><textPath startOffset="22.20632615414155" xlink:href="#id1">January</textPath></text><line stroke="#e1ed5e" stroke-width="0.3" x1="143.23703022742887" x2="145.7803849466894" y1="26.81831364943548" y2="22.513508569990506" /><path d="M 143.74570117128098 25.957352633546492 a86.0,86.0 0 0,1 28.547481713284135,27.462654790039103" fill="none" id="id2" stroke="none" /><text fill="#e1ed5e" style="font-size:6.75px; font-family:Arial;" text-anchor="middle"><textPath startOffset="19.985693538727396" xlink:href="#id2">February</textPath></text><line stroke="#e1ed5e" stroke-width="0.3" x1="172.23445277983987" x2="176.4835382374775" y1="55.19839476539836" y2="52.563006222186495" /><path d="M 173.08426987136738 54.67131705675599 a86.0,86.0 0 0,1 12.851231095245387,41.99856678651699" fill="none" id="id3" stroke="none" /><text fill="#e1ed5e" style="font-size:6.75px; font-family:Arial;" text-anchor="middle"><textPath startOffset="22.20632615414155" xlink:href="#id3">March</textPath></text><line stroke="#e1ed5e" stroke-width="0.3" x1="184.98032266829074" x2="189.97916517819016" y1="98.17113171792111" y2="98.06355123074" /><path d="M 185.9800911702706 98.14961562048488 a86.0,86.0 0 0,1 -9.607161424134198,41.387399972396054" fill="none" id="id4" stroke="none" /><text fill="#e1ed5e" style="font-size:6.75px; font-family:Arial;" text-anchor="middle"><textPath startOffset="21.466115282336823" xlink:href="#id4">April</textPath></text><path d="M 118.64920377521936 109.65438752849418 l 55.94761132565807 28.96316258548255 a84.0,84.0 0 0,0 -0.6757899671004277,1.2783399396554627 l -55.44076885033275 -29.921917540224147" fill="#4dd2ff" stroke="none" /><line stroke="#e1ed5e" stroke-width="0.3" x1="174.80103733775053" x2="179.2010983576182" y1="140.37084112569926" y2="142.7455964860345" /><path d="M 175.68104954172406 140.8457921977663 a86.0,86.0 0 0,1 -30.038265399797805,32.042727171017184" fill="none" id="id5" stroke="none" /><text fill="#e1ed5e" style="font-size:6.75px; font-family:Arial;" text-anchor="middle"><textPath startOffset="22.206326154141568" xlink:href="#id5">May</textPath></text><path d="M 117.94076556474637 110.91462005526583 l 2.2475958490226096 1.367369449276966 a23.6308527726499,23.6308527726499 0 0,0 -0.21440538323762698,0.3456897459392927 l -2.22372582611702 -1.4058555265815322" fill="#ff0000" stroke="none" /><path d="M 116.0416608686014 113.55231037782055 l 44.6848191844132 37.75061346355192 a79.49651171153891,79.49651171153891 0 0,0 -0.8920927832294503,1.0377054474717433 l -44.02838389161297 -38.51419601018519" fill="#47fdff" stroke="none" /><path d="M 115.32070863581623 114.36230785411682 l 7.2212397636150465 6.769508580756557 a30.89810841264894,30.89810841264894 0 0,0 -0.36708931541611495,0.3848916796100538 l -7.1036438968199676 -6.892807376949118" fill="#ff6909" stroke="none" /><path d="M 115.07121518719521 114.62390073753431 l 6.907625238934678 6.702606563012451 a30.624979022320254,30.624979022320254 0 0,0 -0.37035716810456126,0.3751698559587912 l -6.791227445774581 -6.820516912951907" fill="#ff6609" stroke="none" /><path d="M 114.55890576462653 115.13401014063108 l 9.629031510363022 10.009396508105525 a34.88907002948862,34.88907002948862 0 0,0 -0.4363861175322052,0.412630311974806 l -9.45530955844001 -10.17366145682625" fill="#ffa00e" stroke="none" /><path d="M 113.75828350139079 115.86535959552629 l 8.30095089055646 9.572238488192909 a33.670182925367406,33.670182925367406 0 0,0 -0.4411347491778382,0.3759446034633546 l -8.134950664801575 -9.71370748187921" fill="#ff900d" stroke="none" /><path d="M 113.48314897796784 116.09983520530334 l 7.872793588223889 9.400673357751257 a33.26187336673779,33.26187336673779 0 0,0 -0.4421134493914419,0.3638292699187661 l -7.709810010287756 -9.534797746527202" fill="#ff8a0c" stroke="none" /><path d="M 112.92097659922987 116.55440617244103 l 8.051951397563771 10.316191883202514 a34.08654791302055,34.08654791302055 0 0,0 -0.4656405400512216,0.35703331018004 l -7.873182129019056 -10.453264535209925" fill="#ff950d" stroke="none" /><path d="M 112.34349029814194 116.9893568818739 l 6.736525452444273 9.272031839538187 a32.46086164321162,32.46086164321162 0 0,0 -0.4548735474321681,0.3245401984511031 l -6.57592457716322 -9.38661629983351" fill="#ff7f0b" stroke="none" /><path d="M 112.04921762599082 117.19931262002967 l 10.852557655823071 15.491174418392863 a39.914399079379535,39.914399079379535 0 0,0 -0.5661061414384724,0.38937296611277644 l -10.584294629761715 -15.675688173870732" fill="#ffe215" stroke="none" /><path d="M 111.7513745106137 117.40417183066458 l 6.42858870761151 9.520951135961848 a32.488048716166006,32.488048716166006 0 0,0 -0.46616528889283065,0.3089489342619049 l -6.263748719978715 -9.630198091315071" fill="#ff800b" stroke="none" /><path d="M 111.45004920935366 117.60387380957326 l 3.440422592141871 5.289476408031017 a27.30991824698521,27.30991824698521 0 0,0 -0.3962775749746183,0.2529230975733335 l -3.348863215120322 -5.347913934428159" fill="#ff3605" stroke="none" /><line stroke="#e1ed5e" stroke-width="0.3" x1="143.8653032363475" x2="146.44561519142675" y1="172.8068346515853" y2="177.08958963109032" /><path d="M 144.38136562736335 173.6633856474863 a86.0,86.0 0 0,1 -40.68145358897372,12.25698825130547" fill="none" id="id6" stroke="none" /><text fill="#e1ed5e" style="font-size:6.75px; font-family:Arial;" text-anchor="middle"><textPath startOffset="21.466115282336833" xlink:href="#id6">June</textPath></text><path d="M 110.5260780823613 118.17145234162733 l 3.983713375564127 6.877191787895972 a28.947687660329407,28.947687660329407 0 0,0 -0.4333210148002161,0.24605098118736657 l -3.8647435938427117 -6.944745934877967" fill="#ff4e07" stroke="none" /><path d="M 109.89434966115114 118.52300852407294 l 28.897284239079916 54.098011553470926 a82.33227445997458,82.33227445997458 0 0,0 -1.2557988821531103,0.6569746224219521 l -27.96179445440031 -54.587415594837594" fill="#4be2ff" stroke="none" /><path d="M 109.2508944713604 118.85261126421891 l 4.606817254725671 9.388339164122726 a31.457708997626526,31.457708997626526 0 0,0 -0.4881747074315039,0.2343535258952372 l -4.444529879293934 -9.466246966517524" fill="#ff710a" stroke="none" /><path d="M 108.92500713936063 119.00905698771935 l 10.708467965199635 22.807587111491035 a46.19637505693942,46.19637505693942 0 0,0 -0.7227136993207761,0.3317624124896631 l -10.31428627011144 -22.98853659431477" fill="#ceff1d" stroke="none" /><path d="M 108.2653958097858 119.30500536409082 l 5.970817622271365 13.945692242528413 a36.17013497638513,36.17013497638513 0 0,0 -0.5744653489739793,0.24012656246164266 l -5.729880813799925 -14.046403848010028" fill="#ffb110" stroke="none" /><path d="M 107.93186726928326 119.44442032107085 l 13.882051317996392 34.030882209932464 a57.7533983841193,57.7533983841193 0 0,0 -0.9237213954373052,0.3675678066814755 l -13.29420884651722 -34.26479686102001" fill="#4eff2c" stroke="none" /><path d="M 107.2578585660854 119.70592522655815 l 4.519914030175121 12.27208922550585 a34.07798901968306,34.07798901968306 0 0,0 -0.5521939560225154,0.1979971065097509 l -4.308000513522871 -12.34807387305556" fill="#ff950d" stroke="none" /><path d="M 106.91757812671514 119.82793768551818 l 4.88655224556108 14.006383686196703 a35.83432427896718,35.83432427896718 0 0,0 -0.5841511333539451,0.19817578039444378 l -4.644731379269908 -14.088422453489269" fill="#ffad10" stroke="none" /><path d="M 106.57524785965236 119.94407469862006 l 6.793340339186039 20.60559389848439 a42.69654287837741,42.69654287837741 0 0,0 -0.6999765881635601,0.22411039899787236 l -6.4376424059315385 -20.71947714414197" fill="#f9ff18" stroke="none" /><path d="M 106.2309692047433 120.05430185196036 l 5.481358707047209 17.64168919119612 a39.473616072498864,39.473616072498864 0 0,0 -0.6506098272395043,0.19602340391346867 l -5.176873905367459 -17.733427964215316" fill="#ffdd14" stroke="none" /><path d="M 105.53697534728816 120.25689768951611 l 5.894726265773487 21.565721243812245 a43.35683632614898,43.35683632614898 0 0,0 -0.721601365021272,0.19058147903486514 l -5.522634457940718 -21.663994072150693" fill="#f1ff19" stroke="none" /><path d="M 104.83641907484287 120.43548508189849 l 5.8143471628106616 24.56755770496512 a46.24621802402244,46.24621802402244 0 0,0 -0.7762314295358361,0.17666774616979264 l -5.3905955838819635 -24.664002184712597" fill="#ceff1d" stroke="none" /><path d="M 104.48393922423573 120.51570834832081 l 2.0316992967908494 9.295788399441134 a30.515223801874804,30.515223801874804 0 0,0 -0.5141212732141325,0.10773911150952926 l -1.871386562147339 -9.329383491677204" fill="#ff6409" stroke="none" /><path d="M 104.13013068566511 120.58985236759428 l 2.4781180185116773 12.354108873049835 a33.60020138572558,33.60020138572558 0 0,0 -0.5680552213735847,0.10886913515906915 l -2.2650951825663883 -12.394935206557372" fill="#ff8f0d" stroke="none" /><path d="M 102.70371172650421 120.8252237178851 l 2.2776815348893127 17.543744422596085 a38.6909807964326,38.6909807964326 0 0,0 -0.6611967610993011,0.0800617196955514 l -1.975357350738631 -17.580351671016988" fill="#ffd313" stroke="none" /><path d="M 102.34483914955558 120.86867818915974 l 1.6984638398869119 15.116045506678889 a36.211167317973675,36.211167317973675 0 0,0 -0.6200169241144694,0.06426728928071809 l -1.4380143191668397 -15.143042164415366" fill="#ffb210" stroke="none" /><path d="M 101.62511606390274 120.93702456842531 l 1.7552663890320046 22.613803609225698 a43.68182254081657,43.68182254081657 0 0,0 -0.7501567564411799,0.051735201958855184 l -1.3657468718118944 -22.640667155700836" fill="#edff1a" stroke="none" /><path d="M 101.26447882468166 120.96189622390904 l 0.721699674900722 11.963975508966232 a32.985723190525285,32.985723190525285 0 0,0 -0.5670590306566577,0.02931047470589143 l -0.5156525758305845 -11.974625790434326" fill="#ff860c" stroke="none" /><line stroke="#e1ed5e" stroke-width="0.3" x1="102.19456741930631" x2="102.32365962044197" y1="184.97166512339345" y2="189.96999836594603" /><path d="M 102.22038585953345 185.97133177190398 a86.0,86.0 0 0,1 -42.740103519485714,-10.115201625700543" fill="none" id="id7" stroke="none" /><text fill="#e1ed5e" style="font-size:6.75px; font-family:Arial;" text-anchor="middle"><textPath startOffset="22.20632615414155" xlink:href="#id7">July</textPath></text><path d="M 100.18074693466247 120.99922214144158 l 0.12485799433954757 14.506031674436647 a35.506569010572754,35.506569010572754 0 0,0 -0.6112098580039961,0.0 l 0.12485799433953758 -14.506031674436647" fill="#ffa90f" stroke="none" /><path d="M 99.45781275523022 120.99299961872073 l -0.4815289824956036 18.644366578976776 a39.65058377885929,39.65058377885929 0 0,0 -0.6821404268343518,-0.023494295546828674 l 0.8023897610045985 -18.633315485003852" fill="#ffdf14" stroke="none" /><path d="M 99.09653310690486 120.98055641714683 l -0.23678885846218123 5.498775928466093 a26.50387188031934,26.50387188031934 0 0,0 -0.45562923723978577,-0.02355082718269535 l 0.3314061641154559 -5.493885294521196" fill="#ff2b04" stroke="none" /><path d="M 98.73552117531835 120.96189622390904 l -1.387103955842188 22.99471419100913 a44.036513150008396,44.036513150008396 0 0,0 -0.7562479298733986,-0.05215528494148033 l 1.7827146464945167 -22.967430561551364" fill="#e8ff1a" stroke="none" /><path d="M 98.01472825383883 120.90594882070398 l -0.9000380887513567 9.477871357663739 a30.520510177171488,30.520510177171488 0 0,0 -0.5225800283180054,-0.0541675566359792 l 1.0630507136749556 -9.460974432571998" fill="#ff6409" stroke="none" /><path d="M 97.65516085044442 120.86867818915974 l -2.353861869785346 20.948978897590607 a42.08080602239217,42.08080602239217 0 0,0 -0.7191260617776425,-0.08707615126258182 l 2.714115354614378 -20.905357217602678" fill="#fffe18" stroke="none" /><path d="M 96.93821686468263 120.77559828337769 l -3.6733176298231043 24.92513939480681 a46.19436119968354,46.19436119968354 0 0,0 -0.7856651963829141,-0.12270474565416808 l 4.101818689814535 -24.858216341805534" fill="#ceff1d" stroke="none" /><path d="M 96.58105272829116 120.7198165907248 l -4.263335690099886 25.837056422168583 a47.1864376303613,47.1864376303613 0 0,0 -0.800261823553483,-0.13913577583818362 l 4.707446485125419 -25.75984206780939" fill="#c2ff1e" stroke="none" /><path d="M 96.22490169976321 120.6578951692458 l -3.671378354609231 20.090324315898833 a41.42302989619046,41.42302989619046 0 0,0 -0.7003103388434518,-0.1342161431919982 l 4.016656308024378 -20.024150974358367" fill="#fff517" stroke="none" /><path d="M 95.16358092515715 120.4354850818985 l -2.366495531346772 9.999233602143503 a31.275454915969412,31.275454915969412 0 0,0 -0.5228164626863272,-0.12849556646695842 l 2.5382652787763096 -9.957016777362513" fill="#ff6f0a" stroke="none" /><path d="M 94.81253420990036 120.34920634021253 l -6.224809707896411 24.418462174014472 a46.199395842823236,46.199395842823236 0 0,0 -0.7689109706381845,-0.2030763758686063 l 6.6442111213460855 -24.307694448842284" fill="#ceff1d" stroke="none" /><path d="M 94.46302465271185 120.25689768951611 l -4.8504121745957125 17.745122022421647 a39.39608256814749,39.39608256814749 0 0,0 -0.6526032963921738,-0.18443221023856304 l 5.1551466390925 -17.659001018844563" fill="#ffdc14" stroke="none" /><path d="M 93.76903079525671 120.05430185196036 l -4.545988812403095 14.6312120737439 a36.32117427057611,36.32117427057611 0 0,0 -0.5954573820281661,-0.19064664980106252 l 4.797167539522201 -14.55079257728313" fill="#ffb310" stroke="none" /><path d="M 93.42475214034765 119.94407469862007 l -8.061539831667702 24.45230294287073 a46.746913284265545,46.746913284265545 0 0,0 -0.76204206233157,-0.2585260419317645 l 8.481251626936496 -24.309913914040845" fill="#c8ff1d" stroke="none" /><path d="M 92.7421414339146 119.70592522655815 l -6.138146263029623 16.665776852438576 a38.760207139603466,38.760207139603466 0 0,0 -0.6240942992095154,-0.23597906233465105 l 6.424110782999421 -16.55764953999729" fill="#ffd313" stroke="none" /><path d="M 92.06813273071674 119.44442032107085 l -7.854185895556851 19.253989842272514 a41.794334827743285,41.794334827743285 0 0,0 -0.6637906426843618,-0.27746454247707936 l 8.184447997738674 -19.115940256775463" fill="#fffa17" stroke="none" /><path d="M 91.7346041902142 119.30500536409082 l -4.085833382128776 9.543043935704938 a31.380930689746112,31.380930689746112 0 0,0 -0.4947417791130124,-0.21688025684248266 l 4.249495835899531 -9.471299125568004" fill="#ff700a" stroke="none" /><path d="M 91.07499286063937 119.00905698771935 l -8.67498026773581 18.476533598441936 a41.411701949126126,41.411701949126126 0 0,0 -0.6426451934176137,-0.30850874632454856 l 8.991738129153665 -18.324470575617823" fill="#fff517" stroke="none" /><path d="M 90.7491055286396 118.85261126421891 l -3.0835945262055375 6.284128424446012 a27.999916089281005,27.999916089281005 0 0,0 -0.43086016521246473,-0.21604223134783673 l 3.191308599100763 -6.230118352188873" fill="#ff4006" stroke="none" /><line stroke="#e1ed5e" stroke-width="0.3" x1="58.666819895761336" x2="56.23545636021788" y1="174.27360380694188" y2="178.64263932499728" /><path d="M 58.180547188652646 175.14741091055294 a86.0,86.0 0 0,1 -31.652253787137756,-30.449443065178592" fill="none" id="id8" stroke="none" /><text fill="#e1ed5e" style="font-size:6.75px; font-family:Arial;" text-anchor="middle"><textPath startOffset="22.20632615414155" xlink:href="#id8">August</textPath></text><path d="M 89.1626897886671 117.98757091392108 l -8.433464844996637 13.997711977535044 a37.34194816715015,37.34194816715015 0 0,0 -0.5477188928824689,-0.336453679253415 l 8.673162937811414 -13.85046983145325" fill="#ffc111" stroke="none" /><path d="M 88.54995079064634 117.60387380957326 l -15.116392793543161 23.240692361050343 a48.72426937738247,48.72426937738247 0 0,0 -0.6991359594673823,-0.4633491912163311 l 15.514203451750506 -22.977045148742693" fill="#b0ff20" stroke="none" /><path d="M 87.65650970185807 116.9893568818739 l -14.950771861081673 20.57797208668198 a46.43577233823212,46.43577233823212 0 0,0 -0.6426158738910543,-0.47539186072881173 l 15.302772705391291 -20.317570277213402" fill="#cbff1d" stroke="none" /><path d="M 87.07902340077011 116.55440617244103 l -4.81233658912604 6.165584615302234 a28.821318117522956,28.821318117522956 0 0,0 -0.38845991157973003,-0.30861604753811445 l 4.917753993423128 -6.081834653758989" fill="#ff4c07" stroke="none" /><path d="M 86.51685102203217 116.09983520530335 l -13.471350293263663 16.085746739790807 a41.9816235525401,41.9816235525401 0 0,0 -0.5500282851737875,-0.468746037233921 l 13.746244055014508 -15.851476312333933" fill="#fffc17" stroke="none" /><path d="M 85.97065885151581 115.62618273729859 l -13.594109016765012 15.141411802483677 a41.3485171777229,41.3485171777229 0 0,0 -0.5255208506481782,-0.48005083708800284 l 13.852729416880045 -14.905168198809099" fill="#fff417" stroke="none" /><path d="M 84.43433777217949 114.09645910891817 l -36.67937413896213 33.21730165559343 a70.48500395579103,70.48500395579103 0 0,0 -0.8066879492036305,-0.9063224625705213 l 37.2457209378141 -32.581005023282046" fill="#3cffa2" stroke="none" /><line stroke="#e1ed5e" stroke-width="0.3" x1="26.63291911575756" x2="22.317208475507996" y1="142.92168965132927" y2="145.44649492493687" /><path d="M 25.769776987707644 143.4266507060508 a86.0,86.0 0 0,1 -11.730757126820373,-40.83630448921669" fill="none" id="id9" stroke="none" /><text fill="#e1ed5e" style="font-size:6.75px; font-family:Arial;" text-anchor="middle"><textPath startOffset="21.46611528233685" xlink:href="#id9">September</textPath></text><path d="M 81.35079622478065 109.6543875284942 l -12.099783682167141 6.263859952767234 a34.62500299681139,34.62500299681139 0 0,0 -0.2694506689711152,-0.5316517326716068 l 12.205813020924523 -6.0546540083929425" fill="#ff9d0e" stroke="none" /><path d="M 81.02952815118164 109.00673069616217 l -13.650589582374785 6.480976603644394 a36.11097791949366,36.11097791949366 0 0,0 -0.2617622595277848,-0.5638126195590163 l 13.760126458742397 -6.245043916806551" fill="#ffb110" stroke="none" /><path d="M 80.32549172779594 107.34259656027581 l -9.543629399235328 3.5617164825600085 a31.186593464553717,31.186593464553717 0 0,0 -0.18337084165549566,-0.5045578015931789 l 9.603524501896048 -3.3969108839607123" fill="#ff6e0a" stroke="none" /><path d="M 80.20201598880116 107.00284435728193 l -11.910781587039958 4.213022375431727 a33.63393349476158,33.63393349476158 0 0,0 -0.1883647128776012,-0.5474760271899385 l 11.981537130860788 -4.007373645152492" fill="#ff8f0d" stroke="none" /><path d="M 79.97269907076064 106.31721596034903 l -10.817892248716825 3.4122901439582805 a32.34330272589965,32.34330272589965 0 0,0 -0.1629074055776037,-0.532390827187016 l 10.87502642680056 -3.225572344219217" fill="#ff7e0b" stroke="none" /><path d="M 79.76711848015287 105.62410040840567 l -33.46397626166847 9.301925797149107 a55.732744360000964,55.732744360000964 0 0,0 -0.2489712361506565,-0.9265145892898182 l 33.6191355741609 -8.72452027468375" fill="#63ff29" stroke="none" /><path d="M 79.58551787078972 104.9243191809786 l -8.018769034666668 1.934263035198232 a29.248759320083433,29.248759320083433 0 0,0 -0.11384652543128666,-0.4904478519175896 l 8.05087612602851 -1.795946525932068" fill="#ff5207" stroke="none" /><path d="M 79.50377843672027 104.57218783832718 l -9.879325226672558 2.203827203604994 a31.122150032365564,31.122150032365564 0 0,0 -0.11213749519814846,-0.5238690450713341 l 9.915796760595146 -2.033444339117496" fill="#ff6d0a" stroke="none" /><path d="M 79.4281124754447 104.21870165774334 l -10.286436962812868 2.1094519700971928 a31.500503464313972,31.500503464313972 0 0,0 -0.10435676844345591,-0.5321129140197007 l 10.32122366423199 -1.9320753290095372" fill="#ff720a" stroke="none" /><path d="M 79.23777060512086 103.15116336523772 l -58.25654289213333 8.841819452797699 a79.92370118194242,79.92370118194242 0 0,0 -0.1947320008209453,-1.361955160192548 l 58.40010894397088 -7.83771882062475" fill="#48f9ff" stroke="none" /><path d="M 79.1416061653843 102.43462659150553 l -25.196495690607918 2.9409770909256023 a46.3675529236892,46.3675529236892 0 0,0 -0.08570865188218037,-0.7935556698083774 l 25.24338664399115 -2.506825099232443" fill="#ccff1d" stroke="none" /><path d="M 79.07016306316243 101.71520430193888 l -6.620012435753112 0.542511336469508 a27.642204694205365,27.642204694205365 0 0,0 -0.03478105591075093,-0.4745598742245895 l 6.628370050328198 -0.42847832574815786" fill="#ff3b05" stroke="none" /><path d="M 79.0235259727143 100.99374915477108 l -59.13428503774617 2.8014548916949833 a80.20060655462588,80.20060655462588 0 0,0 -0.05345892551451249,-1.379537328133774 l 59.173746096111884 -1.7831403165472126" fill="#48f6ff" stroke="none" /><line stroke="#e1ed5e" stroke-width="0.3" x1="15.007084014347285" x2="10.007500721073583" y1="101.09737516637583" y2="101.16192664675087" /><path d="M 14.007167355692545 101.11028546245083 a86.0,86.0 0 0,1 10.666146001902534,-42.60595125391555" fill="none" id="id10" stroke="none" /><text fill="#e1ed5e" style="font-size:6.75px; font-family:Arial;" text-anchor="middle"><textPath startOffset="22.20632615414155" xlink:href="#id10">October</textPath></text><line stroke="#e1ed5e" stroke-width="0.3" x1="26.266209847984243" x2="21.928928074336255" y1="57.711370442889674" y2="55.22380399835377" /><path d="M 25.398753493254645 57.213857153982495 a86.0,86.0 0 0,1 29.58750427330803,-30.492523968695096" fill="none" id="id11" stroke="none" /><text fill="#e1ed5e" style="font-size:6.75px; font-family:Arial;" text-anchor="middle"><textPath startOffset="21.46611528233685" xlink:href="#id11">November</textPath></text><line stroke="#e1ed5e" stroke-width="0.3" x1="56.762969772571076" x2="54.21961505331055" y1="26.818313649435495" y2="22.513508569990535" /><path d="M 56.25429882871897 25.957352633546506 a86.0,86.0 0 0,1 42.265352541879196,-11.944610805530505" fill="none" id="id12" stroke="none" /><text fill="#e1ed5e" style="font-size:6.75px; font-family:Arial;" text-anchor="middle"><textPath startOffset="22.20632615414155" xlink:href="#id12">December</textPath></text></svg>